<mxfile host="app.diagrams.net" modified="2020-10-29T12:39:06.844Z" agent="5.0 (X11)" etag="0liaNwBsQLyyow2mqGZ3" version="13.8.6" type="github">
  <diagram id="XKImJL3WsoMAxy66nfSz" name="Page-1">
    <mxGraphModel dx="1652" dy="641" grid="1" gridSize="10" guides="1" tooltips="1" connect="1" arrows="1" fold="1" page="1" pageScale="1" pageWidth="850" pageHeight="1100" math="0" shadow="0">
      <root>
        <mxCell id="0" />
        <mxCell id="1" parent="0" />
        <mxCell id="YiIqMJAIogplofICxLFk-3" style="edgeStyle=orthogonalEdgeStyle;rounded=0;orthogonalLoop=1;jettySize=auto;html=1;" edge="1" parent="1" source="YiIqMJAIogplofICxLFk-1">
          <mxGeometry relative="1" as="geometry">
            <mxPoint x="-640" y="270" as="targetPoint" />
          </mxGeometry>
        </mxCell>
        <mxCell id="YiIqMJAIogplofICxLFk-1" value="Modelo Entidade-Relacionamento" style="rounded=0;whiteSpace=wrap;html=1;" vertex="1" parent="1">
          <mxGeometry x="-700" y="130" width="120" height="60" as="geometry" />
        </mxCell>
        <mxCell id="YiIqMJAIogplofICxLFk-2" value="MER" style="text;html=1;align=center;verticalAlign=middle;resizable=0;points=[];autosize=1;" vertex="1" parent="1">
          <mxGeometry x="-660" y="100" width="40" height="20" as="geometry" />
        </mxCell>
        <mxCell id="YiIqMJAIogplofICxLFk-4" value="ENTIDADE" style="rounded=0;whiteSpace=wrap;html=1;" vertex="1" parent="1">
          <mxGeometry x="-700" y="270" width="120" height="30" as="geometry" />
        </mxCell>
        <mxCell id="YiIqMJAIogplofICxLFk-6" value="VALOR" style="rounded=0;whiteSpace=wrap;html=1;" vertex="1" parent="1">
          <mxGeometry x="-580" y="350" width="120" height="30" as="geometry" />
        </mxCell>
        <mxCell id="YiIqMJAIogplofICxLFk-7" value="ATIBUTOS" style="rounded=0;whiteSpace=wrap;html=1;" vertex="1" parent="1">
          <mxGeometry x="-820" y="350" width="120" height="30" as="geometry" />
        </mxCell>
        <mxCell id="YiIqMJAIogplofICxLFk-9" value="" style="endArrow=none;html=1;entryX=0.5;entryY=1;entryDx=0;entryDy=0;exitX=1;exitY=0;exitDx=0;exitDy=0;" edge="1" parent="1" source="YiIqMJAIogplofICxLFk-7" target="YiIqMJAIogplofICxLFk-4">
          <mxGeometry width="50" height="50" relative="1" as="geometry">
            <mxPoint x="-700" y="360" as="sourcePoint" />
            <mxPoint x="-650" y="310" as="targetPoint" />
          </mxGeometry>
        </mxCell>
        <mxCell id="YiIqMJAIogplofICxLFk-10" value="" style="endArrow=none;html=1;entryX=0.5;entryY=1;entryDx=0;entryDy=0;exitX=0;exitY=0;exitDx=0;exitDy=0;" edge="1" parent="1" source="YiIqMJAIogplofICxLFk-6" target="YiIqMJAIogplofICxLFk-4">
          <mxGeometry width="50" height="50" relative="1" as="geometry">
            <mxPoint x="-660" y="420" as="sourcePoint" />
            <mxPoint x="-610" y="370" as="targetPoint" />
          </mxGeometry>
        </mxCell>
        <mxCell id="YiIqMJAIogplofICxLFk-11" value="" style="endArrow=classic;startArrow=classic;html=1;" edge="1" parent="1">
          <mxGeometry width="50" height="50" relative="1" as="geometry">
            <mxPoint x="-680" y="370" as="sourcePoint" />
            <mxPoint x="-600" y="370" as="targetPoint" />
          </mxGeometry>
        </mxCell>
        <mxCell id="YiIqMJAIogplofICxLFk-13" value="&lt;div&gt;Atributos:&lt;/div&gt;&lt;div&gt;nome;&lt;/div&gt;&lt;div&gt;idades;&lt;/div&gt;&lt;div&gt;morada..&lt;br&gt;&lt;/div&gt;" style="text;html=1;align=center;verticalAlign=middle;resizable=0;points=[];autosize=1;" vertex="1" parent="1">
          <mxGeometry x="-790" y="290" width="60" height="60" as="geometry" />
        </mxCell>
        <mxCell id="YiIqMJAIogplofICxLFk-14" value="&lt;div&gt;Valor:&lt;/div&gt;&lt;div&gt;João&lt;/div&gt;&lt;div&gt;22&lt;/div&gt;&lt;div&gt;lisboa&lt;br&gt;&lt;/div&gt;" style="text;html=1;align=center;verticalAlign=middle;resizable=0;points=[];autosize=1;" vertex="1" parent="1">
          <mxGeometry x="-540" y="290" width="40" height="60" as="geometry" />
        </mxCell>
        <mxCell id="YiIqMJAIogplofICxLFk-25" style="edgeStyle=orthogonalEdgeStyle;rounded=0;orthogonalLoop=1;jettySize=auto;html=1;exitX=1;exitY=0.5;exitDx=0;exitDy=0;" edge="1" parent="1" source="YiIqMJAIogplofICxLFk-18">
          <mxGeometry relative="1" as="geometry">
            <mxPoint x="-670" y="475" as="targetPoint" />
          </mxGeometry>
        </mxCell>
        <mxCell id="YiIqMJAIogplofICxLFk-18" value="CHAVE" style="rounded=0;whiteSpace=wrap;html=1;" vertex="1" parent="1">
          <mxGeometry x="-820" y="460" width="120" height="30" as="geometry" />
        </mxCell>
        <mxCell id="YiIqMJAIogplofICxLFk-20" value="" style="endArrow=classic;startArrow=classic;html=1;" edge="1" parent="1">
          <mxGeometry width="50" height="50" relative="1" as="geometry">
            <mxPoint x="-760" y="450" as="sourcePoint" />
            <mxPoint x="-760" y="390" as="targetPoint" />
          </mxGeometry>
        </mxCell>
        <mxCell id="YiIqMJAIogplofICxLFk-22" value="&lt;u&gt;ATRIBUTO ÚNICO DE UM ELEMENTO&lt;br&gt;&lt;/u&gt;" style="text;html=1;strokeColor=none;fillColor=none;align=center;verticalAlign=middle;whiteSpace=wrap;rounded=0;" vertex="1" parent="1">
          <mxGeometry x="-630" y="470" width="10" height="10" as="geometry" />
        </mxCell>
        <mxCell id="YiIqMJAIogplofICxLFk-27" value="ENTIDADE FRACA" style="rounded=0;whiteSpace=wrap;html=1;" vertex="1" parent="1">
          <mxGeometry x="-320" y="270" width="120" height="30" as="geometry" />
        </mxCell>
        <mxCell id="YiIqMJAIogplofICxLFk-29" value="" style="endArrow=classic;html=1;entryX=0;entryY=0;entryDx=0;entryDy=0;" edge="1" parent="1" target="YiIqMJAIogplofICxLFk-27">
          <mxGeometry width="50" height="50" relative="1" as="geometry">
            <mxPoint x="-640" y="190" as="sourcePoint" />
            <mxPoint x="-480" y="200" as="targetPoint" />
          </mxGeometry>
        </mxCell>
        <mxCell id="YiIqMJAIogplofICxLFk-31" value="" style="endArrow=none;html=1;entryX=0.5;entryY=1;entryDx=0;entryDy=0;" edge="1" parent="1" target="YiIqMJAIogplofICxLFk-27">
          <mxGeometry width="50" height="50" relative="1" as="geometry">
            <mxPoint x="-260" y="380" as="sourcePoint" />
            <mxPoint x="-230" y="320" as="targetPoint" />
          </mxGeometry>
        </mxCell>
        <mxCell id="YiIqMJAIogplofICxLFk-32" value="&amp;nbsp;CHAVE PARCIAL" style="rounded=0;whiteSpace=wrap;html=1;" vertex="1" parent="1">
          <mxGeometry x="-320" y="380" width="120" height="30" as="geometry" />
        </mxCell>
        <mxCell id="YiIqMJAIogplofICxLFk-33" value="ENTIDADE IDENTIFICADORA" style="rounded=0;whiteSpace=wrap;html=1;" vertex="1" parent="1">
          <mxGeometry x="-180" y="40" width="120" height="30" as="geometry" />
        </mxCell>
        <mxCell id="YiIqMJAIogplofICxLFk-34" value="" style="endArrow=none;html=1;entryX=0.5;entryY=1;entryDx=0;entryDy=0;" edge="1" parent="1" target="YiIqMJAIogplofICxLFk-33">
          <mxGeometry width="50" height="50" relative="1" as="geometry">
            <mxPoint x="-60" y="100" as="sourcePoint" />
            <mxPoint x="-70" y="80" as="targetPoint" />
          </mxGeometry>
        </mxCell>
        <mxCell id="YiIqMJAIogplofICxLFk-35" value="CHAVE" style="rounded=0;whiteSpace=wrap;html=1;" vertex="1" parent="1">
          <mxGeometry x="-120" y="140" width="120" height="30" as="geometry" />
        </mxCell>
        <mxCell id="YiIqMJAIogplofICxLFk-37" style="edgeStyle=orthogonalEdgeStyle;rounded=0;orthogonalLoop=1;jettySize=auto;html=1;exitX=0.5;exitY=1;exitDx=0;exitDy=0;entryX=0.5;entryY=0;entryDx=0;entryDy=0;" edge="1" parent="1" source="YiIqMJAIogplofICxLFk-36" target="YiIqMJAIogplofICxLFk-35">
          <mxGeometry relative="1" as="geometry" />
        </mxCell>
        <mxCell id="YiIqMJAIogplofICxLFk-36" value="ATRIBUTOS" style="rounded=0;whiteSpace=wrap;html=1;" vertex="1" parent="1">
          <mxGeometry x="-120" y="95" width="120" height="30" as="geometry" />
        </mxCell>
        <mxCell id="YiIqMJAIogplofICxLFk-39" value="" style="endArrow=classic;html=1;entryX=0.5;entryY=0;entryDx=0;entryDy=0;exitX=0;exitY=0.5;exitDx=0;exitDy=0;" edge="1" parent="1" source="YiIqMJAIogplofICxLFk-36" target="YiIqMJAIogplofICxLFk-27">
          <mxGeometry width="50" height="50" relative="1" as="geometry">
            <mxPoint x="-150" y="140" as="sourcePoint" />
            <mxPoint x="-120" y="110" as="targetPoint" />
          </mxGeometry>
        </mxCell>
        <mxCell id="YiIqMJAIogplofICxLFk-40" value="" style="endArrow=classic;html=1;entryX=0.75;entryY=0;entryDx=0;entryDy=0;exitX=0;exitY=0.5;exitDx=0;exitDy=0;" edge="1" parent="1" source="YiIqMJAIogplofICxLFk-35" target="YiIqMJAIogplofICxLFk-27">
          <mxGeometry width="50" height="50" relative="1" as="geometry">
            <mxPoint x="-200" y="270" as="sourcePoint" />
            <mxPoint x="-150" y="220" as="targetPoint" />
          </mxGeometry>
        </mxCell>
      </root>
    </mxGraphModel>
  </diagram>
</mxfile>
